# xmcd
#
# Track frame offsets: 
#        182
#        20607
#        35390
#        48467
#        58620
#        69810
#        80110
#        90002
#        103912
#        116895
#        129197
#        142445
#        154402
#        165210
#        179205
#        191292
#        200075
#        213002
#        228622
#        246460
#        260487
#        271152
#        280597
#        292720
#        303707
#
# Disc length: 4266 seconds
#
# Revision: 1
# Processed by: cddbd v1.5.2PL0 Copyright (c) Steve Scherf et al.
# Submitted via: ExactAudioCopy v1.0b1
#
DISCID=6f10a819
DTITLE=Big Maybelle - Savoy Blues Legends: Candy!
DYEAR=2002
DGENRE=Blues
TTITLE0=Blues Early, Early (Parts 1 and 2) (mono)
TTITLE1=Goodnight Wherever You Are (mono)
TTITLE2=Ramblin' Blues (mono)
TTITLE3=True, True Feeling (mono)
TTITLE4=Ain'tcha Glad That I Want You (mono)
TTITLE5=Goin' Home, Baby (mono)
TTITLE6=A Good Man Is Hard To Find (mono)
TTITLE7=How It Lies, How It Lies (mono)
TTITLE8=I Ain't Got Nobody (mono)
TTITLE9=I Understand (stereo)
TTITLE10=I Got It Bad (stereo)
TTITLE11=Some Of These Days (stereo)
TTITLE12=Until The Real Thing Comes Along (stereo)
TTITLE13=St. Louis Blues (mono)
TTITLE14=The Hesitating Blues (mono)
TTITLE15=Ole Miss Blues (mono)
TTITLE16=Beale Street Blues (mono)
TTITLE17=Careless Love (mono)
TTITLE18=Friendless Blues (mono)
TTITLE19=Yellow Dog Blues (mono)
TTITLE20=Memphis Blues (mono)
TTITLE21=Joe Turner Blues (mono)
TTITLE22=The Basement Blues (mono)
TTITLE23=Way Down South Where The Blues Began (mono)
TTITLE24=Harlem Blues (mono)
EXTD=
EXTT0=
EXTT1=
EXTT2=
EXTT3=
EXTT4=
EXTT5=
EXTT6=
EXTT7=
EXTT8=
EXTT9=
EXTT10=
EXTT11=
EXTT12=
EXTT13=
EXTT14=
EXTT15=
EXTT16=
EXTT17=
EXTT18=
EXTT19=
EXTT20=
EXTT21=
EXTT22=
EXTT23=
EXTT24=
PLAYORDER=
